<svg xmlns:dc="http://purl.org/dc/elements/1.1/" xmlns:cc="http://creativecommons.org/ns#" xmlns:rdf="http://www.w3.org/1999/02/22-rdf-syntax-ns#" xmlns:svg="http://www.w3.org/2000/svg" xmlns:sodipodi="http://sodipodi.sourceforge.net/DTD/sodipodi-0.dtd" xmlns:inkscape="http://www.inkscape.org/namespaces/inkscape" xmlns="http://www.w3.org/2000/svg" width="10000px" height="10000px" viewBox="0 0 10000 10000" version="1.1" id="svg8" sodipodi:docname="test.svg"><defs id="defs2"/><sodipodi:namedview id="base" pagecolor="#ffffff" bordercolor="#666666" inkscape:pageopacity="0.0" inkscape:zoom="50" inkscape:cx="0" inkscape:cy="0" inkscape:document-units="px" inkscape:current-layer="layer1" inkscape:window-x="-8" inkscape:window-y="-8" inkscape.window-maximized="1" showguides="true" inkscape:guide-bbox="true"><inkscape:grid type="xygrid" id="grid1"/></sodipodi:namedview><metadata id="metadata1"><rdf:RDF><cc:Work rdf:about=""><dc:format>image/svg+xml</dc:format><dc:type rdf:resource="http://purl.org/dc/dcmitype/StillImage"/><dc:title/></cc:Work></rdf:RDF></metadata><g inkscape:label="Layer 1" inkscape:groupmode="layer" id="layer1"><path id="path1" sodipodi:type="arc" sodipodi:cx="0" sodipodi:cy="0" sodipodi:rx="0" sodipodi:ry="0" sodipodi:start="-1.5707963267948966" sodipodi:end="-1.5707963267948966" d="M 0 0 L 0 0 A 0 0 0 0 1 0 0 L 0 0" style="fill: #66ffff; stroke: #0033ff; stroke-width: 0; "/><path id="path2" sodipodi:type="arc" sodipodi:cx="0" sodipodi:cy="0" sodipodi:rx="0" sodipodi:ry="0" sodipodi:start="-1.5707963267948966" sodipodi:end="-1.5707963267948966" d="M 0 0 L 0 0 A 0 0 0 0 1 0 0 L 0 0" style="fill: #333333; stroke: #ffffff; stroke-width: 0; "/><path id="path3" sodipodi:type="arc" sodipodi:cx="175" sodipodi:cy="225" sodipodi:rx="25" sodipodi:ry="25" sodipodi:start="-1.5707963267948966" sodipodi:end="-1.5707963267948966" d="M 175 225 L 175 200 A 25 25 0 0 1 175 200 L 175 225" style="fill: #ffffff; "/><path id="path4" sodipodi:type="arc" sodipodi:cx="175" sodipodi:cy="225" sodipodi:rx="25" sodipodi:ry="25" sodipodi:start="-1.3962634015954636" sodipodi:end="-1.3962634015954636" d="M 175 225 L 179 200 A 25 25 0 0 1 179 200 L 175 225" style="stroke: #ffffff; stroke-width: 0; "/><path id="path5" sodipodi:type="arc" sodipodi:cx="275" sodipodi:cy="775" sodipodi:rx="25" sodipodi:ry="25" sodipodi:start="-1.5707963267948966" sodipodi:end="-1.5707963267948966" d="M 275 775 L 275 750 A 25 25 0 0 1 275 750 L 275 775" style="fill: #ffffff; "/><path id="path6" sodipodi:type="arc" sodipodi:cx="275" sodipodi:cy="775" sodipodi:rx="25" sodipodi:ry="25" sodipodi:start="1.7453292519943295" sodipodi:end="1.7453292519943295" d="M 275 775 L 270 799 A 25 25 0 0 1 270 799 L 275 775" style="stroke: #ffffff; stroke-width: 0; "/><path id="path7" sodipodi:type="arc" sodipodi:cx="50" sodipodi:cy="475" sodipodi:rx="25" sodipodi:ry="25" sodipodi:start="-1.5707963267948966" sodipodi:end="-1.5707963267948966" d="M 50 475 L 50 450 A 25 25 0 0 1 50 450 L 50 475" style="fill: #ffffff; stroke: #ffffff; stroke-width: 0; "/><path id="path8" sodipodi:type="arc" sodipodi:cx="370" sodipodi:cy="475" sodipodi:rx="25" sodipodi:ry="25" sodipodi:start="-1.5707963267948966" sodipodi:end="-1.5707963267948966" d="M 370 475 L 370 450 A 25 25 0 0 1 370 450 L 370 475" style="fill: #ffffff; "/><path id="path9" sodipodi:type="arc" sodipodi:cx="370" sodipodi:cy="475" sodipodi:rx="25" sodipodi:ry="25" sodipodi:start="1.5707963267948966" sodipodi:end="1.5707963267948966" d="M 370 475 L 370 500 A 25 25 0 0 1 370 500 L 370 475" style="stroke: #ffffff; stroke-width: 0; "/><path id="path10" sodipodi:type="arc" sodipodi:cx="200" sodipodi:cy="225" sodipodi:rx="50" sodipodi:ry="25" sodipodi:start="-1.5707963267948966" sodipodi:end="-1.5707963267948966" d="M 200 225 L 200 200 A 50 25 0 0 1 200 200 L 200 225" style="fill: #ffffff; "/><path id="path11" sodipodi:type="arc" sodipodi:cx="200" sodipodi:cy="225" sodipodi:rx="50" sodipodi:ry="25" sodipodi:start="4.537856055185257" sodipodi:end="4.537856055185257" d="M 200 225 L 191 200 A 50 25 0 0 1 191 200 L 200 225" style="stroke: #ffffff; stroke-width: 0; "/><path id="path12" sodipodi:type="arc" sodipodi:cx="250" sodipodi:cy="775" sodipodi:rx="50" sodipodi:ry="25" sodipodi:start="-1.5707963267948966" sodipodi:end="-1.5707963267948966" d="M 250 775 L 250 750 A 50 25 0 0 1 250 750 L 250 775" style="fill: #ffffff; "/><path id="path13" sodipodi:type="arc" sodipodi:cx="250" sodipodi:cy="775" sodipodi:rx="50" sodipodi:ry="25" sodipodi:start="1.3962634015954636" sodipodi:end="1.3962634015954636" d="M 250 775 L 258 799 A 50 25 0 0 1 258 799 L 250 775" style="stroke: #ffffff; stroke-width: 0; "/><rect id="rect14" x="-100" y="-1" width="0" height="1002" ry="100" style="fill: #666666; stroke: #666666; stroke-width: 0; "/><rect id="rect15" x="520" y="-1" width="0" height="1002" ry="100" style="fill: #666666; stroke: #666666; stroke-width: 0; "/><rect id="rect16" x="-101" y="0" width="622" height="0" ry="280" style="fill: #666666; stroke: #666666; stroke-width: 0; "/><rect id="rect17" x="-101" y="1000" width="622" height="0" ry="280" style="fill: #666666; stroke: #666666; stroke-width: 0; "/><rect id="rect18" x="0" y="100" width="20" height="20" ry="100" style="fill: #000044; stroke: #000044; stroke-width: 0; "/><rect id="rect19" x="0" y="200" width="20" height="20" ry="100" style="fill: #000044; stroke: #000044; stroke-width: 0; "/><rect id="rect20" x="0" y="300" width="20" height="20" ry="100" style="fill: #000044; stroke: #000044; stroke-width: 0; "/><rect id="rect21" x="0" y="400" width="20" height="20" ry="100" style="fill: #000044; stroke: #000044; stroke-width: 0; "/><rect id="rect22" x="0" y="500" width="20" height="20" ry="100" style="fill: #000044; stroke: #000044; stroke-width: 0; "/><rect id="rect23" x="0" y="600" width="20" height="20" ry="100" style="fill: #000044; stroke: #000044; stroke-width: 0; "/><rect id="rect24" x="0" y="700" width="20" height="20" ry="100" style="fill: #000044; stroke: #000044; stroke-width: 0; "/><rect id="rect25" x="0" y="800" width="20" height="20" ry="100" style="fill: #000044; stroke: #000044; stroke-width: 0; "/><rect id="rect26" x="0" y="900" width="20" height="20" ry="100" style="fill: #000044; stroke: #000044; stroke-width: 0; "/><rect id="rect27" x="400" y="100" width="20" height="20" ry="100" style="fill: #000044; stroke: #000044; stroke-width: 0; "/><rect id="rect28" x="400" y="200" width="20" height="20" ry="100" style="fill: #000044; stroke: #000044; stroke-width: 0; "/><rect id="rect29" x="400" y="300" width="20" height="20" ry="100" style="fill: #000044; stroke: #000044; stroke-width: 0; "/><rect id="rect30" x="400" y="400" width="20" height="20" ry="100" style="fill: #000044; stroke: #000044; stroke-width: 0; "/><rect id="rect31" x="400" y="500" width="20" height="20" ry="100" style="fill: #000044; stroke: #000044; stroke-width: 0; "/><rect id="rect32" x="400" y="600" width="20" height="20" ry="100" style="fill: #000044; stroke: #000044; stroke-width: 0; "/><rect id="rect33" x="400" y="700" width="20" height="20" ry="100" style="fill: #000044; stroke: #000044; stroke-width: 0; "/><rect id="rect34" x="400" y="800" width="20" height="20" ry="100" style="fill: #000044; stroke: #000044; stroke-width: 0; "/><rect id="rect35" x="400" y="900" width="20" height="20" ry="100" style="fill: #000044; stroke: #000044; stroke-width: 0; "/><rect id="rect36" x="100" y="100" width="20" height="20" ry="160" style="fill: #444444; stroke: #444444; stroke-width: 0; "/><rect id="rect37" x="100" y="200" width="20" height="20" ry="160" style="fill: #444444; stroke: #444444; stroke-width: 0; "/><rect id="rect38" x="100" y="300" width="20" height="20" ry="160" style="fill: #444444; stroke: #444444; stroke-width: 0; "/><rect id="rect39" x="100" y="400" width="20" height="20" ry="160" style="fill: #444444; stroke: #444444; stroke-width: 0; "/><rect id="rect40" x="100" y="500" width="20" height="20" ry="160" style="fill: #444444; stroke: #444444; stroke-width: 0; "/><rect id="rect41" x="100" y="600" width="20" height="20" ry="160" style="fill: #444444; stroke: #444444; stroke-width: 0; "/><rect id="rect42" x="100" y="700" width="20" height="20" ry="160" style="fill: #444444; stroke: #444444; stroke-width: 0; "/><rect id="rect43" x="100" y="800" width="20" height="20" ry="160" style="fill: #444444; stroke: #444444; stroke-width: 0; "/><rect id="rect44" x="100" y="900" width="20" height="20" ry="160" style="fill: #444444; stroke: #444444; stroke-width: 0; "/><rect id="rect45" x="300" y="100" width="20" height="20" ry="160" style="fill: #444444; stroke: #444444; stroke-width: 0; "/><rect id="rect46" x="300" y="200" width="20" height="20" ry="160" style="fill: #444444; stroke: #444444; stroke-width: 0; "/><rect id="rect47" x="300" y="300" width="20" height="20" ry="160" style="fill: #444444; stroke: #444444; stroke-width: 0; "/><rect id="rect48" x="300" y="400" width="20" height="20" ry="160" style="fill: #444444; stroke: #444444; stroke-width: 0; "/><rect id="rect49" x="300" y="500" width="20" height="20" ry="160" style="fill: #444444; stroke: #444444; stroke-width: 0; "/><rect id="rect50" x="300" y="600" width="20" height="20" ry="160" style="fill: #444444; stroke: #444444; stroke-width: 0; "/><rect id="rect51" x="300" y="700" width="20" height="20" ry="160" style="fill: #444444; stroke: #444444; stroke-width: 0; "/><rect id="rect52" x="300" y="800" width="20" height="20" ry="160" style="fill: #444444; stroke: #444444; stroke-width: 0; "/><rect id="rect53" x="300" y="900" width="20" height="20" ry="160" style="fill: #444444; stroke: #444444; stroke-width: 0; "/><rect id="rect54" x="-100" y="0" width="100" height="1000" style="fill: #440000; stroke: #440000; stroke-width: 0; "/><rect id="rect55" x="0" y="0" width="100" height="1000" style="fill: #880000; stroke: #880000; stroke-width: 0; "/><rect id="rect56" x="100" y="0" width="220" height="1000" style="fill: #cc0000; stroke: #cc0000; stroke-width: 0; "/><rect id="rect57" x="100" y="0" width="220" height="1000" ry="100" style="fill: #cc0000; stroke: #cc0000; stroke-width: 3; "/><rect id="rect58" x="320" y="0" width="100" height="1000" style="fill: #880000; stroke: #880000; stroke-width: 1; "/><rect id="rect59" x="420" y="0" width="100" height="1000" style="fill: #440000; stroke: #440000; stroke-width: 1; "/><rect id="rect60" x="-100" y="0" width="310" height="400" style="fill: #eeeeee; stroke: #eeeeee; stroke-width: 3; "/><path id="path61" sodipodi:type="arc" sodipodi:cx="55" sodipodi:cy="200" sodipodi:rx="155" sodipodi:ry="200" sodipodi:start="-1.5707963267948966" sodipodi:end="-1.5707963267948966" d="M 55 200 L 55 0 A 155 200 0 0 1 55 0 L 55 200" style="fill: #eeeeee; "/><path id="path62" sodipodi:type="arc" sodipodi:cx="55" sodipodi:cy="200" sodipodi:rx="155" sodipodi:ry="200" sodipodi:start="-0.7853981633974483" sodipodi:end="0.7853981633974483" d="M 55 200 L 164 58 A 155 200 0 0 1 164 341 L 55 200" style="stroke: #eeeeee; stroke-width: 3; "/><rect id="rect63" x="210" y="0" width="310" height="400" style="fill: #eeeeee; stroke: #eeeeee; stroke-width: 3; "/><path id="path64" sodipodi:type="arc" sodipodi:cx="365" sodipodi:cy="200" sodipodi:rx="155" sodipodi:ry="200" sodipodi:start="-1.5707963267948966" sodipodi:end="-1.5707963267948966" d="M 365 200 L 365 0 A 155 200 0 0 1 365 0 L 365 200" style="fill: #eeeeee; "/><path id="path65" sodipodi:type="arc" sodipodi:cx="365" sodipodi:cy="200" sodipodi:rx="155" sodipodi:ry="200" sodipodi:start="2.356194490192345" sodipodi:end="3.9269908169872414" d="M 365 200 L 255 341 A 155 200 0 0 1 255 58 L 365 200" style="stroke: #eeeeee; stroke-width: 3; "/><rect id="rect66" x="-100" y="400" width="310" height="200" style="fill: #eeeeee; stroke: #eeeeee; stroke-width: 3; "/><path id="path67" sodipodi:type="arc" sodipodi:cx="55" sodipodi:cy="500" sodipodi:rx="155" sodipodi:ry="100" sodipodi:start="-1.5707963267948966" sodipodi:end="-1.5707963267948966" d="M 55 500 L 55 400 A 155 100 0 0 1 55 400 L 55 500" style="fill: #eeeeee; "/><path id="path68" sodipodi:type="arc" sodipodi:cx="55" sodipodi:cy="500" sodipodi:rx="155" sodipodi:ry="100" sodipodi:start="-0.7853981633974483" sodipodi:end="0.7853981633974483" d="M 55 500 L 164 429 A 155 100 0 0 1 164 570 L 55 500" style="stroke: #eeeeee; stroke-width: 3; "/><rect id="rect69" x="210" y="400" width="310" height="200" style="fill: #eeeeee; stroke: #eeeeee; stroke-width: 3; "/><path id="path70" sodipodi:type="arc" sodipodi:cx="365" sodipodi:cy="500" sodipodi:rx="155" sodipodi:ry="100" sodipodi:start="-1.5707963267948966" sodipodi:end="-1.5707963267948966" d="M 365 500 L 365 400 A 155 100 0 0 1 365 400 L 365 500" style="fill: #eeeeee; "/><path id="path71" sodipodi:type="arc" sodipodi:cx="365" sodipodi:cy="500" sodipodi:rx="155" sodipodi:ry="100" sodipodi:start="2.356194490192345" sodipodi:end="3.9269908169872414" d="M 365 500 L 255 570 A 155 100 0 0 1 255 429 L 365 500" style="stroke: #eeeeee; stroke-width: 3; "/><rect id="rect72" x="-100" y="600" width="310" height="400" style="fill: #eeeeee; stroke: #eeeeee; stroke-width: 3; "/><path id="path73" sodipodi:type="arc" sodipodi:cx="55" sodipodi:cy="800" sodipodi:rx="155" sodipodi:ry="200" sodipodi:start="-1.5707963267948966" sodipodi:end="-1.5707963267948966" d="M 55 800 L 55 600 A 155 200 0 0 1 55 600 L 55 800" style="fill: #eeeeee; "/><path id="path74" sodipodi:type="arc" sodipodi:cx="55" sodipodi:cy="800" sodipodi:rx="155" sodipodi:ry="200" sodipodi:start="-0.7853981633974483" sodipodi:end="0.7853981633974483" d="M 55 800 L 164 658 A 155 200 0 0 1 164 941 L 55 800" style="stroke: #eeeeee; stroke-width: 3; "/><rect id="rect75" x="210" y="600" width="310" height="400" style="fill: #eeeeee; stroke: #eeeeee; stroke-width: 3; "/><path id="path76" sodipodi:type="arc" sodipodi:cx="365" sodipodi:cy="800" sodipodi:rx="155" sodipodi:ry="200" sodipodi:start="-1.5707963267948966" sodipodi:end="-1.5707963267948966" d="M 365 800 L 365 600 A 155 200 0 0 1 365 600 L 365 800" style="fill: #eeeeee; "/><path id="path77" sodipodi:type="arc" sodipodi:cx="365" sodipodi:cy="800" sodipodi:rx="155" sodipodi:ry="200" sodipodi:start="2.356194490192345" sodipodi:end="3.9269908169872414" d="M 365 800 L 255 941 A 155 200 0 0 1 255 658 L 365 800" style="stroke: #eeeeee; stroke-width: 3; "/><ellipse id="ellipse78" cx="210.0" cy="40.0" rx="40.0" ry="40.0" style="fill: #eeeeee; stroke: #eeeeee; stroke-width: 1; "/><path id="path79" sodipodi:type="arc" sodipodi:cx="210" sodipodi:cy="40" sodipodi:rx="40" sodipodi:ry="40" sodipodi:start="-1.5707963267948966" sodipodi:end="-1.5707963267948966" d="M 210 40 L 210 0 A 40 40 0 0 1 210 0 L 210 40" style="fill: #eeeeee; stroke: #eeeeee; stroke-width: 1; "/><path id="path80" sodipodi:type="arc" sodipodi:cx="210" sodipodi:cy="150" sodipodi:rx="50" sodipodi:ry="50" sodipodi:start="-1.5707963267948966" sodipodi:end="-1.5707963267948966" d="M 210 150 L 210 100 A 50 50 0 0 1 210 100 L 210 150" style="fill: #eeeeee; stroke: #eeeeee; stroke-width: 1; "/><ellipse id="ellipse81" cx="210.0" cy="960.0" rx="40.0" ry="40.0" style="fill: #eeeeee; stroke: #eeeeee; stroke-width: 1; "/><path id="path82" sodipodi:type="arc" sodipodi:cx="210" sodipodi:cy="960" sodipodi:rx="40" sodipodi:ry="40" sodipodi:start="-1.5707963267948966" sodipodi:end="-1.5707963267948966" d="M 210 960 L 210 920 A 40 40 0 0 1 210 920 L 210 960" style="fill: #eeeeee; "/><path id="path83" sodipodi:type="arc" sodipodi:cx="210" sodipodi:cy="960" sodipodi:rx="40" sodipodi:ry="40" sodipodi:start="1.5707963267948966" sodipodi:end="1.5707963267948966" d="M 210 960 L 210 1000 A 40 40 0 0 1 210 1000 L 210 960" style="stroke: #eeeeee; stroke-width: 1; "/><path id="path84" sodipodi:type="arc" sodipodi:cx="210" sodipodi:cy="850" sodipodi:rx="50" sodipodi:ry="50" sodipodi:start="-1.5707963267948966" sodipodi:end="-1.5707963267948966" d="M 210 850 L 210 800 A 50 50 0 0 1 210 800 L 210 850" style="fill: #eeeeee; stroke: #eeeeee; stroke-width: 1; "/><ellipse id="ellipse85" cx="210.0" cy="0.0" rx="100.0" ry="100.0" style="fill: #eeeeee; stroke: #eeeeee; stroke-width: 1; "/><path id="path86" sodipodi:type="arc" sodipodi:cx="210" sodipodi:cy="10" sodipodi:rx="100" sodipodi:ry="100" sodipodi:start="-1.5707963267948966" sodipodi:end="-1.5707963267948966" d="M 210 10 L 210 -90 A 100 100 0 0 1 210 -90 L 210 10" style="fill: #eeeeee; stroke: #eeeeee; stroke-width: 1; "/><path id="path87" sodipodi:type="arc" sodipodi:cx="210" sodipodi:cy="100" sodipodi:rx="50" sodipodi:ry="50" sodipodi:start="-1.5707963267948966" sodipodi:end="-1.5707963267948966" d="M 210 100 L 210 50 A 50 50 0 0 1 210 50 L 210 100" style="fill: #eeeeee; stroke: #eeeeee; stroke-width: 1; "/><ellipse id="ellipse88" cx="210.0" cy="1000.0" rx="100.0" ry="100.0" style="fill: #eeeeee; stroke: #eeeeee; stroke-width: 1; "/><path id="path89" sodipodi:type="arc" sodipodi:cx="210" sodipodi:cy="990" sodipodi:rx="100" sodipodi:ry="100" sodipodi:start="-1.5707963267948966" sodipodi:end="-1.5707963267948966" d="M 210 990 L 210 890 A 100 100 0 0 1 210 890 L 210 990" style="fill: #eeeeee; "/><path id="path90" sodipodi:type="arc" sodipodi:cx="210" sodipodi:cy="990" sodipodi:rx="100" sodipodi:ry="100" sodipodi:start="1.5707963267948966" sodipodi:end="1.5707963267948966" d="M 210 990 L 210 1090 A 100 100 0 0 1 210 1090 L 210 990" style="stroke: #eeeeee; stroke-width: 1; "/><path id="path91" sodipodi:type="arc" sodipodi:cx="210" sodipodi:cy="850" sodipodi:rx="50" sodipodi:ry="50" sodipodi:start="-1.5707963267948966" sodipodi:end="-1.5707963267948966" d="M 210 850 L 210 800 A 50 50 0 0 1 210 800 L 210 850" style="fill: #eeeeee; stroke: #eeeeee; stroke-width: 1; "/><path id="path92" sodipodi:type="arc" sodipodi:cx="60" sodipodi:cy="510" sodipodi:rx="40" sodipodi:ry="40" sodipodi:start="-1.5707963267948966" sodipodi:end="-1.5707963267948966" d="M 60 510 L 60 470 A 40 40 0 0 1 60 470 L 60 510" style="fill: #00bb00; "/><path id="path93" sodipodi:type="arc" sodipodi:cx="60" sodipodi:cy="510" sodipodi:rx="40" sodipodi:ry="40" sodipodi:start="2.356194490192345" sodipodi:end="3.9269908169872414" d="M 60 510 L 31 538 A 40 40 0 0 1 31 481 L 60 510" style="stroke: #00bb00; stroke-width: 1; "/><path id="path94" sodipodi:type="arc" sodipodi:cx="360" sodipodi:cy="510" sodipodi:rx="40" sodipodi:ry="40" sodipodi:start="-1.5707963267948966" sodipodi:end="-1.5707963267948966" d="M 360 510 L 360 470 A 40 40 0 0 1 360 470 L 360 510" style="fill: #00bb00; "/><path id="path95" sodipodi:type="arc" sodipodi:cx="360" sodipodi:cy="510" sodipodi:rx="40" sodipodi:ry="40" sodipodi:start="-0.7853981633974483" sodipodi:end="0.7853981633974483" d="M 360 510 L 388 481 A 40 40 0 0 1 388 538 L 360 510" style="stroke: #00bb00; stroke-width: 1; "/><path id="path96" sodipodi:type="arc" sodipodi:cx="210" sodipodi:cy="500" sodipodi:rx="110" sodipodi:ry="100" sodipodi:start="-1.5707963267948966" sodipodi:end="-1.5707963267948966" d="M 210 500 L 210 400 A 110 100 0 0 1 210 400 L 210 500" style="fill: #ffff00; "/><path id="path97" sodipodi:type="arc" sodipodi:cx="210" sodipodi:cy="500" sodipodi:rx="110" sodipodi:ry="100" sodipodi:start="-0.7853981633974483" sodipodi:end="0.7853981633974483" d="M 210 500 L 287 429 A 110 100 0 0 1 287 570 L 210 500" style="stroke: #ffff00; stroke-width: 1; "/><path id="path98" sodipodi:type="arc" sodipodi:cx="-50" sodipodi:cy="450" sodipodi:rx="50" sodipodi:ry="50" sodipodi:start="-1.5707963267948966" sodipodi:end="-1.5707963267948966" d="M -50 450 L -50 400 A 50 50 0 0 1 -50 400 L -50 450" style="fill: #ffff00; "/><path id="path99" sodipodi:type="arc" sodipodi:cx="-50" sodipodi:cy="450" sodipodi:rx="50" sodipodi:ry="50" sodipodi:start="-0.7853981633974483" sodipodi:end="0.7853981633974483" d="M -50 450 L -14 414 A 50 50 0 0 1 -14 485 L -50 450" style="stroke: #ffff00; stroke-width: 1; "/><path id="path100" sodipodi:type="arc" sodipodi:cx="470" sodipodi:cy="550" sodipodi:rx="50" sodipodi:ry="50" sodipodi:start="-1.5707963267948966" sodipodi:end="-1.5707963267948966" d="M 470 550 L 470 500 A 50 50 0 0 1 470 500 L 470 550" style="fill: #ffff00; "/><path id="path101" sodipodi:type="arc" sodipodi:cx="470" sodipodi:cy="550" sodipodi:rx="50" sodipodi:ry="50" sodipodi:start="-0.7853981633974483" sodipodi:end="0.7853981633974483" d="M 470 550 L 505 514 A 50 50 0 0 1 505 585 L 470 550" style="stroke: #ffff00; stroke-width: 1; "/><path id="path102" sodipodi:type="arc" sodipodi:cx="-99" sodipodi:cy="255" sodipodi:rx="10" sodipodi:ry="55" sodipodi:start="-1.5707963267948966" sodipodi:end="-1.5707963267948966" d="M -99 255 L -99 200 A 10 55 0 0 1 -99 200 L -99 255" style="fill: #88ffff; "/><path id="path103" sodipodi:type="arc" sodipodi:cx="-99" sodipodi:cy="255" sodipodi:rx="10" sodipodi:ry="55" sodipodi:start="-0.7853981633974483" sodipodi:end="0.7853981633974483" d="M -99 255 L -91 216 A 10 55 0 0 1 -91 293 L -99 255" style="stroke: #88ffff; stroke-width: 1; "/><path id="path104" sodipodi:type="arc" sodipodi:cx="-99" sodipodi:cy="755" sodipodi:rx="10" sodipodi:ry="55" sodipodi:start="-1.5707963267948966" sodipodi:end="-1.5707963267948966" d="M -99 755 L -99 700 A 10 55 0 0 1 -99 700 L -99 755" style="fill: #88ffff; "/><path id="path105" sodipodi:type="arc" sodipodi:cx="-99" sodipodi:cy="755" sodipodi:rx="10" sodipodi:ry="55" sodipodi:start="-0.7853981633974483" sodipodi:end="0.7853981633974483" d="M -99 755 L -91 716 A 10 55 0 0 1 -91 793 L -99 755" style="stroke: #88ffff; stroke-width: 1; "/><path id="path106" sodipodi:type="arc" sodipodi:cx="519" sodipodi:cy="255" sodipodi:rx="10" sodipodi:ry="55" sodipodi:start="-1.5707963267948966" sodipodi:end="-1.5707963267948966" d="M 519 255 L 519 200 A 10 55 0 0 1 519 200 L 519 255" style="fill: #88ffff; "/><path id="path107" sodipodi:type="arc" sodipodi:cx="519" sodipodi:cy="255" sodipodi:rx="10" sodipodi:ry="55" sodipodi:start="-0.7853981633974483" sodipodi:end="0.7853981633974483" d="M 519 255 L 526 216 A 10 55 0 0 1 526 293 L 519 255" style="stroke: #88ffff; stroke-width: 1; "/><path id="path108" sodipodi:type="arc" sodipodi:cx="519" sodipodi:cy="755" sodipodi:rx="10" sodipodi:ry="55" sodipodi:start="-1.5707963267948966" sodipodi:end="-1.5707963267948966" d="M 519 755 L 519 700 A 10 55 0 0 1 519 700 L 519 755" style="fill: #88ffff; "/><path id="path109" sodipodi:type="arc" sodipodi:cx="519" sodipodi:cy="755" sodipodi:rx="10" sodipodi:ry="55" sodipodi:start="-0.7853981633974483" sodipodi:end="0.7853981633974483" d="M 519 755 L 526 716 A 10 55 0 0 1 526 793 L 519 755" style="stroke: #88ffff; stroke-width: 1; "/></g></svg>