<svg xmlns:dc="http://purl.org/dc/elements/1.1/" xmlns:cc="http://creativecommons.org/ns#" xmlns:rdf="http://www.w3.org/1999/02/22-rdf-syntax-ns#" xmlns:svg="http://www.w3.org/2000/svg" xmlns:sodipodi="http://sodipodi.sourceforge.net/DTD/sodipodi-0.dtd" xmlns:inkscape="http://www.inkscape.org/namespaces/inkscape" xmlns="http://www.w3.org/2000/svg" width="10000px" height="10000px" viewBox="0 0 10000 10000" version="1.1" id="svg8" sodipodi:docname="test.svg"><defs id="defs2"/><sodipodi:namedview id="base" pagecolor="#ffffff" bordercolor="#666666" inkscape:pageopacity="0.0" inkscape:zoom="50" inkscape:cx="0" inkscape:cy="0" inkscape:document-units="px" inkscape:current-layer="layer1" inkscape:window-x="-8" inkscape:window-y="-8" inkscape.window-maximized="1" showguides="true" inkscape:guide-bbox="true"><inkscape:grid type="xygrid" id="grid1"/></sodipodi:namedview><metadata id="metadata1"><rdf:RDF><cc:Work rdf:about=""><dc:format>image/svg+xml</dc:format><dc:type rdf:resource="http://purl.org/dc/dcmitype/StillImage"/><dc:title/></cc:Work></rdf:RDF></metadata><g inkscape:label="Layer 1" inkscape:groupmode="layer" id="layer1"><path id="path1" sodipodi:type="arc" sodipodi:cx="0" sodipodi:cy="0" sodipodi:rx="0" sodipodi:ry="0" sodipodi:start="-1.5707963267948966" sodipodi:end="-1.5707963267948966" d="M 0 0 L 0 0 A 0 0 0 0 1 0 0 L 0 0" style="fill: #66ffff; stroke: #0033ff; stroke-width: 0; "/><path id="path2" sodipodi:type="arc" sodipodi:cx="0" sodipodi:cy="0" sodipodi:rx="0" sodipodi:ry="0" sodipodi:start="-1.5707963267948966" sodipodi:end="-1.5707963267948966" d="M 0 0 L 0 0 A 0 0 0 0 1 0 0 L 0 0" style="fill: #882211; stroke: #ffffff; stroke-width: 0; "/><path id="path3" sodipodi:type="arc" sodipodi:cx="300" sodipodi:cy="450" sodipodi:rx="50" sodipodi:ry="50" sodipodi:start="-1.5707963267948966" sodipodi:end="-1.5707963267948966" d="M 300 450 L 300 400 A 50 50 0 0 1 300 400 L 300 450" style="fill: #ffffff; "/><path id="path4" sodipodi:type="arc" sodipodi:cx="300" sodipodi:cy="450" sodipodi:rx="50" sodipodi:ry="50" sodipodi:start="0.7853981633974483" sodipodi:end="0.7853981633974483" d="M 300 450 L 335 485 A 50 50 0 0 1 335 485 L 300 450" style="stroke: #ffffff; stroke-width: 0; "/><path id="path5" sodipodi:type="arc" sodipodi:cx="0" sodipodi:cy="0" sodipodi:rx="0" sodipodi:ry="0" sodipodi:start="-1.5707963267948966" sodipodi:end="-1.5707963267948966" d="M 0 0 L 0 0 A 0 0 0 0 1 0 0 L 0 0" style="fill: #555555; stroke: #555555; stroke-width: 0; "/><path id="path6" sodipodi:type="arc" sodipodi:cx="0" sodipodi:cy="120" sodipodi:rx="0" sodipodi:ry="0" sodipodi:start="-1.5707963267948966" sodipodi:end="-1.5707963267948966" d="M 0 120 L 0 120 A 0 0 0 0 1 0 120 L 0 120" style="fill: #555555; stroke: #555555; stroke-width: 0; "/><path id="path7" sodipodi:type="arc" sodipodi:cx="0" sodipodi:cy="240" sodipodi:rx="0" sodipodi:ry="0" sodipodi:start="-1.5707963267948966" sodipodi:end="-1.5707963267948966" d="M 0 240 L 0 240 A 0 0 0 0 1 0 240 L 0 240" style="fill: #555555; stroke: #555555; stroke-width: 0; "/><path id="path8" sodipodi:type="arc" sodipodi:cx="-120" sodipodi:cy="120" sodipodi:rx="0" sodipodi:ry="0" sodipodi:start="-1.5707963267948966" sodipodi:end="-1.5707963267948966" d="M -120 120 L -120 120 A 0 0 0 0 1 -120 120 L -120 120" style="fill: #666666; "/><path id="path9" sodipodi:type="arc" sodipodi:cx="-120" sodipodi:cy="120" sodipodi:rx="0" sodipodi:ry="0" sodipodi:start="0.0" sodipodi:end="0.0" d="M -120 120 L -120 120 A 0 0 0 0 1 -120 120 L -120 120" style="stroke: #666666; stroke-width: 0; "/><path id="path10" sodipodi:type="arc" sodipodi:cx="0" sodipodi:cy="110" sodipodi:rx="0" sodipodi:ry="-10" sodipodi:start="-1.5707963267948966" sodipodi:end="-1.5707963267948966" d="M 0 110 L 0 120 A 0 -10 0 0 1 0 120 L 0 110" style="fill: #666666; "/><path id="path11" sodipodi:type="arc" sodipodi:cx="0" sodipodi:cy="110" sodipodi:rx="0" sodipodi:ry="-10" sodipodi:start="0.0" sodipodi:end="0.0" d="M 0 110 L 0 110 A 0 -10 0 0 1 0 110 L 0 110" style="stroke: #666666; stroke-width: 0; "/><path id="path12" sodipodi:type="arc" sodipodi:cx="120" sodipodi:cy="120" sodipodi:rx="0" sodipodi:ry="0" sodipodi:start="-1.5707963267948966" sodipodi:end="-1.5707963267948966" d="M 120 120 L 120 120 A 0 0 0 0 1 120 120 L 120 120" style="fill: #666666; "/><path id="path13" sodipodi:type="arc" sodipodi:cx="120" sodipodi:cy="120" sodipodi:rx="0" sodipodi:ry="0" sodipodi:start="0.0" sodipodi:end="0.0" d="M 120 120 L 120 120 A 0 0 0 0 1 120 120 L 120 120" style="stroke: #666666; stroke-width: 0; "/><path id="path14" sodipodi:type="arc" sodipodi:cx="0" sodipodi:cy="0" sodipodi:rx="0" sodipodi:ry="0" sodipodi:start="-1.5707963267948966" sodipodi:end="-1.5707963267948966" d="M 0 0 L 0 0 A 0 0 0 0 1 0 0 L 0 0" style="fill: #777777; stroke: #777777; stroke-width: 0; "/><path id="path15" sodipodi:type="arc" sodipodi:cx="0" sodipodi:cy="120" sodipodi:rx="0" sodipodi:ry="0" sodipodi:start="-1.5707963267948966" sodipodi:end="-1.5707963267948966" d="M 0 120 L 0 120 A 0 0 0 0 1 0 120 L 0 120" style="fill: #777777; stroke: #777777; stroke-width: 0; "/><path id="path16" sodipodi:type="arc" sodipodi:cx="0" sodipodi:cy="240" sodipodi:rx="0" sodipodi:ry="0" sodipodi:start="-1.5707963267948966" sodipodi:end="-1.5707963267948966" d="M 0 240 L 0 240 A 0 0 0 0 1 0 240 L 0 240" style="fill: #777777; stroke: #777777; stroke-width: 0; "/><path id="path17" sodipodi:type="arc" sodipodi:cx="-120" sodipodi:cy="120" sodipodi:rx="0" sodipodi:ry="0" sodipodi:start="-1.5707963267948966" sodipodi:end="-1.5707963267948966" d="M -120 120 L -120 120 A 0 0 0 0 1 -120 120 L -120 120" style="fill: #888888; "/><path id="path18" sodipodi:type="arc" sodipodi:cx="-120" sodipodi:cy="120" sodipodi:rx="0" sodipodi:ry="0" sodipodi:start="0.0" sodipodi:end="0.0" d="M -120 120 L -120 120 A 0 0 0 0 1 -120 120 L -120 120" style="stroke: #888888; stroke-width: 0; "/><path id="path19" sodipodi:type="arc" sodipodi:cx="0" sodipodi:cy="110" sodipodi:rx="0" sodipodi:ry="-10" sodipodi:start="-1.5707963267948966" sodipodi:end="-1.5707963267948966" d="M 0 110 L 0 120 A 0 -10 0 0 1 0 120 L 0 110" style="fill: #888888; "/><path id="path20" sodipodi:type="arc" sodipodi:cx="0" sodipodi:cy="110" sodipodi:rx="0" sodipodi:ry="-10" sodipodi:start="0.0" sodipodi:end="0.0" d="M 0 110 L 0 110 A 0 -10 0 0 1 0 110 L 0 110" style="stroke: #888888; stroke-width: 0; "/><path id="path21" sodipodi:type="arc" sodipodi:cx="120" sodipodi:cy="120" sodipodi:rx="0" sodipodi:ry="0" sodipodi:start="-1.5707963267948966" sodipodi:end="-1.5707963267948966" d="M 120 120 L 120 120 A 0 0 0 0 1 120 120 L 120 120" style="fill: #888888; "/><path id="path22" sodipodi:type="arc" sodipodi:cx="120" sodipodi:cy="120" sodipodi:rx="0" sodipodi:ry="0" sodipodi:start="0.0" sodipodi:end="0.0" d="M 120 120 L 120 120 A 0 0 0 0 1 120 120 L 120 120" style="stroke: #888888; stroke-width: 0; "/><path id="path23" sodipodi:type="arc" sodipodi:cx="0" sodipodi:cy="0" sodipodi:rx="0" sodipodi:ry="0" sodipodi:start="-1.5707963267948966" sodipodi:end="-1.5707963267948966" d="M 0 0 L 0 0 A 0 0 0 0 1 0 0 L 0 0" style="fill: #999999; stroke: #999999; stroke-width: 0; "/><path id="path24" sodipodi:type="arc" sodipodi:cx="0" sodipodi:cy="120" sodipodi:rx="0" sodipodi:ry="0" sodipodi:start="-1.5707963267948966" sodipodi:end="-1.5707963267948966" d="M 0 120 L 0 120 A 0 0 0 0 1 0 120 L 0 120" style="fill: #999999; stroke: #999999; stroke-width: 0; "/><path id="path25" sodipodi:type="arc" sodipodi:cx="0" sodipodi:cy="240" sodipodi:rx="0" sodipodi:ry="0" sodipodi:start="-1.5707963267948966" sodipodi:end="-1.5707963267948966" d="M 0 240 L 0 240 A 0 0 0 0 1 0 240 L 0 240" style="fill: #999999; stroke: #999999; stroke-width: 0; "/><path id="path26" sodipodi:type="arc" sodipodi:cx="-120" sodipodi:cy="120" sodipodi:rx="0" sodipodi:ry="0" sodipodi:start="-1.5707963267948966" sodipodi:end="-1.5707963267948966" d="M -120 120 L -120 120 A 0 0 0 0 1 -120 120 L -120 120" style="fill: #aaaaaa; "/><path id="path27" sodipodi:type="arc" sodipodi:cx="-120" sodipodi:cy="120" sodipodi:rx="0" sodipodi:ry="0" sodipodi:start="0.0" sodipodi:end="0.0" d="M -120 120 L -120 120 A 0 0 0 0 1 -120 120 L -120 120" style="stroke: #aaaaaa; stroke-width: 0; "/><path id="path28" sodipodi:type="arc" sodipodi:cx="0" sodipodi:cy="110" sodipodi:rx="0" sodipodi:ry="-10" sodipodi:start="-1.5707963267948966" sodipodi:end="-1.5707963267948966" d="M 0 110 L 0 120 A 0 -10 0 0 1 0 120 L 0 110" style="fill: #aaaaaa; "/><path id="path29" sodipodi:type="arc" sodipodi:cx="0" sodipodi:cy="110" sodipodi:rx="0" sodipodi:ry="-10" sodipodi:start="0.0" sodipodi:end="0.0" d="M 0 110 L 0 110 A 0 -10 0 0 1 0 110 L 0 110" style="stroke: #aaaaaa; stroke-width: 0; "/><path id="path30" sodipodi:type="arc" sodipodi:cx="120" sodipodi:cy="120" sodipodi:rx="0" sodipodi:ry="0" sodipodi:start="-1.5707963267948966" sodipodi:end="-1.5707963267948966" d="M 120 120 L 120 120 A 0 0 0 0 1 120 120 L 120 120" style="fill: #aaaaaa; "/><path id="path31" sodipodi:type="arc" sodipodi:cx="120" sodipodi:cy="120" sodipodi:rx="0" sodipodi:ry="0" sodipodi:start="0.0" sodipodi:end="0.0" d="M 120 120 L 120 120 A 0 0 0 0 1 120 120 L 120 120" style="stroke: #aaaaaa; stroke-width: 0; "/><path id="path32" sodipodi:type="arc" sodipodi:cx="0" sodipodi:cy="0" sodipodi:rx="0" sodipodi:ry="0" sodipodi:start="-1.5707963267948966" sodipodi:end="-1.5707963267948966" d="M 0 0 L 0 0 A 0 0 0 0 1 0 0 L 0 0" style="fill: #bbbbbb; stroke: #bbbbbb; stroke-width: 0; "/><path id="path33" sodipodi:type="arc" sodipodi:cx="0" sodipodi:cy="120" sodipodi:rx="0" sodipodi:ry="0" sodipodi:start="-1.5707963267948966" sodipodi:end="-1.5707963267948966" d="M 0 120 L 0 120 A 0 0 0 0 1 0 120 L 0 120" style="fill: #bbbbbb; stroke: #bbbbbb; stroke-width: 0; "/><path id="path34" sodipodi:type="arc" sodipodi:cx="0" sodipodi:cy="240" sodipodi:rx="0" sodipodi:ry="0" sodipodi:start="-1.5707963267948966" sodipodi:end="-1.5707963267948966" d="M 0 240 L 0 240 A 0 0 0 0 1 0 240 L 0 240" style="fill: #bbbbbb; stroke: #bbbbbb; stroke-width: 0; "/><path id="path35" sodipodi:type="arc" sodipodi:cx="-120" sodipodi:cy="120" sodipodi:rx="0" sodipodi:ry="0" sodipodi:start="-1.5707963267948966" sodipodi:end="-1.5707963267948966" d="M -120 120 L -120 120 A 0 0 0 0 1 -120 120 L -120 120" style="fill: #cccccc; "/><path id="path36" sodipodi:type="arc" sodipodi:cx="-120" sodipodi:cy="120" sodipodi:rx="0" sodipodi:ry="0" sodipodi:start="0.0" sodipodi:end="0.0" d="M -120 120 L -120 120 A 0 0 0 0 1 -120 120 L -120 120" style="stroke: #cccccc; stroke-width: 0; "/><path id="path37" sodipodi:type="arc" sodipodi:cx="0" sodipodi:cy="110" sodipodi:rx="0" sodipodi:ry="-10" sodipodi:start="-1.5707963267948966" sodipodi:end="-1.5707963267948966" d="M 0 110 L 0 120 A 0 -10 0 0 1 0 120 L 0 110" style="fill: #cccccc; "/><path id="path38" sodipodi:type="arc" sodipodi:cx="0" sodipodi:cy="110" sodipodi:rx="0" sodipodi:ry="-10" sodipodi:start="0.0" sodipodi:end="0.0" d="M 0 110 L 0 110 A 0 -10 0 0 1 0 110 L 0 110" style="stroke: #cccccc; stroke-width: 0; "/><path id="path39" sodipodi:type="arc" sodipodi:cx="120" sodipodi:cy="120" sodipodi:rx="0" sodipodi:ry="0" sodipodi:start="-1.5707963267948966" sodipodi:end="-1.5707963267948966" d="M 120 120 L 120 120 A 0 0 0 0 1 120 120 L 120 120" style="fill: #cccccc; "/><path id="path40" sodipodi:type="arc" sodipodi:cx="120" sodipodi:cy="120" sodipodi:rx="0" sodipodi:ry="0" sodipodi:start="0.0" sodipodi:end="0.0" d="M 120 120 L 120 120 A 0 0 0 0 1 120 120 L 120 120" style="stroke: #cccccc; stroke-width: 0; "/><path id="path41" sodipodi:type="arc" sodipodi:cx="0" sodipodi:cy="0" sodipodi:rx="0" sodipodi:ry="0" sodipodi:start="-1.5707963267948966" sodipodi:end="-1.5707963267948966" d="M 0 0 L 0 0 A 0 0 0 0 1 0 0 L 0 0" style="fill: #dddddd; stroke: #dddddd; stroke-width: 0; "/><path id="path42" sodipodi:type="arc" sodipodi:cx="0" sodipodi:cy="120" sodipodi:rx="0" sodipodi:ry="0" sodipodi:start="-1.5707963267948966" sodipodi:end="-1.5707963267948966" d="M 0 120 L 0 120 A 0 0 0 0 1 0 120 L 0 120" style="fill: #dddddd; stroke: #dddddd; stroke-width: 0; "/><path id="path43" sodipodi:type="arc" sodipodi:cx="0" sodipodi:cy="240" sodipodi:rx="0" sodipodi:ry="0" sodipodi:start="-1.5707963267948966" sodipodi:end="-1.5707963267948966" d="M 0 240 L 0 240 A 0 0 0 0 1 0 240 L 0 240" style="fill: #dddddd; stroke: #dddddd; stroke-width: 0; "/><path id="path44" sodipodi:type="arc" sodipodi:cx="0" sodipodi:cy="120" sodipodi:rx="120" sodipodi:ry="120" sodipodi:start="-1.5707963267948966" sodipodi:end="-1.5707963267948966" d="M 0 120 L 0 0 A 120 120 0 0 1 0 0 L 0 120" style="fill: #ffff00; "/><path id="path45" sodipodi:type="arc" sodipodi:cx="0" sodipodi:cy="120" sodipodi:rx="120" sodipodi:ry="120" sodipodi:start="0.0" sodipodi:end="0.0" d="M 0 120 L 120 120 A 120 120 0 0 1 120 120 L 0 120" style="stroke: #ffff00; stroke-width: 0; "/></g></svg>